<?xml version="1.0" encoding="UTF-8" standalone="no"?>
<!-- Created with Inkscape (http://www.inkscape.org/) -->

<svg
   xmlns:dc="http://purl.org/dc/elements/1.1/"
   xmlns:cc="http://creativecommons.org/ns#"
   xmlns:rdf="http://www.w3.org/1999/02/22-rdf-syntax-ns#"
   xmlns:svg="http://www.w3.org/2000/svg"
   xmlns="http://www.w3.org/2000/svg"
   xmlns:sodipodi="http://sodipodi.sourceforge.net/DTD/sodipodi-0.dtd"
   xmlns:inkscape="http://www.inkscape.org/namespaces/inkscape"
   width="2560px"
   height="1600px"
   viewBox="0 0 2560 1600"
   version="1.1"
   id="SVGRoot"
   inkscape:version="0.92.3 (2405546, 2018-03-11)"
   sodipodi:docname="console.svg">
  <sodipodi:namedview
     id="base"
     pagecolor="#ffffff"
     bordercolor="#666666"
     borderopacity="1.0"
     inkscape:pageopacity="0.0"
     inkscape:pageshadow="2"
     inkscape:zoom="0.7274361"
     inkscape:cx="1169.3054"
     inkscape:cy="819.27528"
     inkscape:document-units="px"
     inkscape:current-layer="layer1"
     showgrid="false"
     inkscape:window-width="1920"
     inkscape:window-height="1016"
     inkscape:window-x="0"
     inkscape:window-y="27"
     inkscape:window-maximized="1"
     inkscape:pagecheckerboard="false"
     inkscape:snap-global="false" />
  <defs
     id="defs815" />
  <metadata
     id="metadata818">
    <rdf:RDF>
      <cc:Work
         rdf:about="">
        <dc:format>image/svg+xml</dc:format>
        <dc:type
           rdf:resource="http://purl.org/dc/dcmitype/StillImage" />
        <dc:title></dc:title>
      </cc:Work>
    </rdf:RDF>
  </metadata>
  <g
     id="layer1"
     inkscape:groupmode="layer"
     inkscape:label="Layer 1">
    <rect
       style="fill:#ff2a2a;fill-opacity:1"
       id="rect1374"
       width="1000"
       height="800"
       x="688.21387"
       y="353.82739"
       ry="52.653286" />
    <rect
       ry="44.464195"
       y="451.03275"
       x="713.48724"
       height="675.57721"
       width="949.45325"
       id="rect1378"
       style="fill:#ffd5d5;fill-opacity:1;stroke-width:0.8954252" />
    <circle
       style="fill:#ffd5d5;fill-opacity:1"
       id="path1382"
       cx="1452.2479"
       cy="403.40219"
       r="20" />
    <circle
       r="20"
       cy="403.40219"
       cx="1520.2917"
       id="circle1384"
       style="fill:#ffd5d5;fill-opacity:1" />
    <circle
       style="fill:#ffd5d5;fill-opacity:1"
       id="circle1386"
       cx="1588.3354"
       cy="403.40219"
       r="20" />
    <path
       style="fill:#ff5555;fill-opacity:1;stroke-width:0.82251763"
       d="m 1317.9306,598.91428 c -6.4127,-0.15407 -12.4857,3.91712 -14.7402,10.46484 l -120.211,349.11523 c -2.7748,8.05873 1.3186,16.72422 9.1758,19.42969 7.8573,2.70547 16.4166,-1.60338 19.1914,-9.66211 l 120.209,-349.11523 c 2.7749,-8.05873 -1.3166,-16.72422 -9.1738,-19.42969 -1.4732,-0.50728 -2.9713,-0.76718 -4.4512,-0.80273 z M 997.03419,700.21506 c -2.04015,0 -4.08128,0.78243 -5.64453,2.3457 L 861.25685,832.69553 c -0.4599,0.45993 -0.84532,0.96379 -1.16992,1.49414 l -0.77539,0.77539 c -3.1266,3.12654 -3.1266,8.16057 0,11.28711 L 989.4463,976.38693 c 1.5633,1.56327 3.60434,2.34572 5.64454,2.34571 2.0401,0 4.07927,-0.78244 5.64256,-2.34571 l 9.9258,-9.92578 c 3.1266,-3.12654 3.1266,-8.16057 0,-11.28711 L 895.93068,840.44553 1012.6045,723.77365 c 3.1266,-3.12654 3.1266,-8.16057 0,-11.28711 l -9.9277,-9.92578 c -1.5633,-1.56327 -3.60246,-2.3457 -5.64261,-2.3457 z m 384.30271,0 c -2.0401,0 -4.0793,0.78243 -5.6426,2.3457 l -9.9258,9.92578 c -3.1266,3.12654 -3.1266,8.16057 0,11.28711 l 114.7285,114.72852 -116.6738,116.67187 c -3.1266,3.12654 -3.1266,8.16057 0,11.28711 l 9.9277,9.92578 c 3.1265,3.12654 8.1606,3.12654 11.2871,0 l 130.1329,-130.13476 c 0.4599,-0.45993 0.8453,-0.96379 1.1699,-1.49414 l 0.7754,-0.77539 c 3.1266,-3.12654 3.1266,-8.16057 0,-11.28711 L 1386.9814,702.56076 c -1.5633,-1.56327 -3.6043,-2.3457 -5.6445,-2.3457 z m -317.334,238.51758 a 20,20 0 0 0 -20,20 20,20 0 0 0 20,20 20,20 0 0 0 20,-20 20,20 0 0 0 -20,-20 z m 69.0547,0 a 20,20 0 0 0 -20,20 20,20 0 0 0 20,20 20,20 0 0 0 20,-20 20,20 0 0 0 -20,-20 z"
       id="rect1388"
       inkscape:connector-curvature="0" />
  </g>
</svg>
