<?xml version="1.0" encoding="UTF-8" standalone="no"?>
<!-- Created with Inkscape (http://www.inkscape.org/) -->

<svg
   width="3840"
   height="2160"
   viewBox="0 0 3840 2160"
   version="1.1"
   id="svg5"
   inkscape:version="1.1.1 (3bf5ae0d25, 2021-09-20)"
   sodipodi:docname="loupe.svg"
   xmlns:inkscape="http://www.inkscape.org/namespaces/inkscape"
   xmlns:sodipodi="http://sodipodi.sourceforge.net/DTD/sodipodi-0.dtd"
   xmlns="http://www.w3.org/2000/svg"
   xmlns:svg="http://www.w3.org/2000/svg">
  <sodipodi:namedview
     id="namedview7"
     pagecolor="#505050"
     bordercolor="#eeeeee"
     borderopacity="1"
     inkscape:pageshadow="0"
     inkscape:pageopacity="0"
     inkscape:pagecheckerboard="0"
     inkscape:document-units="px"
     showgrid="false"
     inkscape:snap-global="false"
     inkscape:zoom="0.50859375"
     inkscape:cx="1625.0691"
     inkscape:cy="1041.106"
     inkscape:window-width="2560"
     inkscape:window-height="1377"
     inkscape:window-x="-8"
     inkscape:window-y="-8"
     inkscape:window-maximized="1"
     inkscape:current-layer="layer1" />
  <defs
     id="defs2" />
  <g
     inkscape:label="Calque 1"
     inkscape:groupmode="layer"
     id="layer1">
    <circle
       style="fill:#ff2a2a;stroke-width:0.896627"
       id="path1186"
       cx="2063.3726"
       cy="-296.3877"
       r="340.15747"
       transform="rotate(30)" />
    <circle
       style="fill:#ff8080;stroke-width:1.03175"
       id="path1416"
       cx="2063.3726"
       cy="-296.3877"
       r="283.46457"
       transform="rotate(30)" />
    <rect
       style="fill:#ff2a2a;stroke-width:0.761322"
       id="rect1608"
       width="151.18111"
       height="831.49603"
       x="1987.782"
       y="59.491634"
       ry="66.519684"
       transform="rotate(30)" />
    <rect
       style="fill:#ff5555;stroke-width:0.344321"
       id="rect1965"
       width="37.795277"
       height="680.31494"
       x="2082.1602"
       y="135.08221"
       ry="18.897638"
       transform="rotate(30)" />
    <path
       id="rect2197"
       style="fill:#ff5555;stroke-width:0.456643"
       d="m 1696.6138,726.92176 c 57.9346,-205.94376 267.4967,-262.38268 422.9061,-113.31731 2.2453,2.15363 6.6219,0.67281 7.3818,3.50892 l 2.7713,10.34262 c 0.7599,2.83612 -2.0727,8.59116 -4.6384,6.72972 -181.2752,-131.51277 -323.8808,-92.72795 -422.906,113.31737 -1.3684,2.84712 -6.6219,-0.67288 -7.3818,-3.50899 l -2.7713,-10.34263 c -0.7599,-2.83611 3.7971,-3.73932 4.6383,-6.7297 z"
       sodipodi:nodetypes="sssssssss" />
  </g>
</svg>
