<?xml version="1.0" encoding="UTF-8" standalone="no"?>
<!-- Created with Inkscape (http://www.inkscape.org/) -->

<svg
   width="2560"
   height="1440"
   viewBox="0 0 2560 1440"
   version="1.1"
   id="svg5"
   inkscape:version="1.1.1 (3bf5ae0d25, 2021-09-20)"
   sodipodi:docname="rouages.svg"
   xmlns:inkscape="http://www.inkscape.org/namespaces/inkscape"
   xmlns:sodipodi="http://sodipodi.sourceforge.net/DTD/sodipodi-0.dtd"
   xmlns="http://www.w3.org/2000/svg"
   xmlns:svg="http://www.w3.org/2000/svg">
  <sodipodi:namedview
     id="namedview7"
     pagecolor="#505050"
     bordercolor="#eeeeee"
     borderopacity="1"
     inkscape:pageshadow="0"
     inkscape:pageopacity="0"
     inkscape:pagecheckerboard="0"
     inkscape:document-units="px"
     showgrid="false"
     inkscape:zoom="0.73789063"
     inkscape:cx="1280"
     inkscape:cy="611.8793"
     inkscape:window-width="2560"
     inkscape:window-height="1377"
     inkscape:window-x="-8"
     inkscape:window-y="-8"
     inkscape:window-maximized="1"
     inkscape:current-layer="layer1"
     inkscape:snap-global="false" />
  <defs
     id="defs2" />
  <g
     inkscape:label="Calque 1"
     inkscape:groupmode="layer"
     id="layer1">
    <path
       id="path896"
       style="fill:#ff2a2a;stroke-width:1.26755"
       d="M 1105.1719 130.10156 C 1099.6512 130.10156 1095.207 134.54574 1095.207 140.06641 L 1095.207 232.64258 A 350 350 0 0 0 954.59766 292.27539 L 880.64258 218.32031 C 876.73888 214.41661 870.45253 214.41661 866.54883 218.32031 L 792.25391 292.61523 C 788.3502 296.51894 788.3502 302.80528 792.25391 306.70898 L 866.54883 381.00391 C 866.79386 381.24894 867.04988 381.47909 867.3125 381.69336 A 350 350 0 0 0 814.0293 513.82031 L 716.03125 513.82031 C 710.51058 513.82031 706.06641 518.26449 706.06641 523.78516 L 706.06641 628.85547 C 706.06641 634.37614 710.51058 638.82031 716.03125 638.82031 L 814.0293 638.82031 A 350 350 0 0 0 863.34375 765.64453 L 792.25391 836.73438 C 788.3502 840.63808 788.3502 846.92442 792.25391 850.82812 L 866.54883 925.12305 C 870.45253 929.02675 876.73888 929.02675 880.64258 925.12305 L 949.33789 856.42773 A 350 350 0 0 0 1095.207 919.99805 L 1095.207 1005.4102 C 1095.207 1010.9308 1099.6512 1015.375 1105.1719 1015.375 L 1210.2422 1015.375 C 1215.7629 1015.375 1220.207 1010.9308 1220.207 1005.4102 L 1220.207 919.99805 A 350 350 0 0 0 1363.1426 858.625 L 1429.6406 925.12305 C 1433.5443 929.02675 1439.8307 929.02675 1443.7344 925.12305 L 1518.0293 850.82812 C 1521.933 846.92442 1521.933 840.63808 1518.0293 836.73438 L 1449.875 768.58008 A 350 350 0 0 0 1501.3848 638.82031 L 1590.8633 638.82031 C 1596.384 638.82031 1600.8281 634.37614 1600.8281 628.85547 L 1600.8281 523.78516 C 1600.8281 518.26449 1596.384 513.82031 1590.8633 513.82031 L 1501.9844 513.82031 A 350 350 0 0 0 1446.3027 378.43555 L 1518.0293 306.70898 C 1521.933 302.80528 1521.933 296.51894 1518.0293 292.61523 L 1443.7344 218.32031 C 1439.8307 214.41661 1433.5443 214.41661 1429.6406 218.32031 L 1358.3164 289.64453 A 350 350 0 0 0 1220.207 232.04297 L 1220.207 140.06641 C 1220.207 134.54574 1215.7629 130.10156 1210.2422 130.10156 L 1105.1719 130.10156 z M 1157.707 338.82031 A 237.5 237.5 0 0 1 1395.207 576.32031 A 237.5 237.5 0 0 1 1157.707 813.82031 A 237.5 237.5 0 0 1 920.20703 576.32031 A 237.5 237.5 0 0 1 1157.707 338.82031 z " />
    <path
       id="path1284"
       style="fill:#ff2a2a;stroke-width:0.781866"
       d="m 1673.2524,617.90528 c -3.303,0.75667 -5.3556,4.05303 -4.6021,7.39115 l 12.6359,55.97698 a 217.00923,214.77939 86.162324 0 0 -75.989,55.32953 l -54.3426,-34.58107 c -2.8684,-1.82546 -6.6295,-0.96384 -8.4323,1.93172 l -34.311,55.1059 c -1.8028,2.89554 -0.9447,6.69663 1.9237,8.52193 l 54.5921,34.74014 c 0.18,0.11455 0.3647,0.21852 0.5512,0.31209 a 217.00923,214.77939 86.162324 0 0 -13.846,87.19479 l -58.6334,13.43174 c -3.3032,0.75667 -5.3555,4.05299 -4.602,7.39111 l 14.3412,63.53172 c 0.7534,3.33811 4.019,5.41624 7.3222,4.65953 l 58.6334,-13.43177 a 217.00923,214.77939 86.162324 0 0 46.8159,69.92623 l -32.8308,52.7287 c -1.8028,2.8956 -0.9449,6.6966 1.9237,8.522 l 54.592,34.74 c 2.8685,1.8253 6.6298,0.9638 8.4326,-1.9318 l 31.7249,-50.9525 a 217.00923,214.77939 86.162324 0 0 95.9521,18.4452 l 11.658,51.6452 c 0.7536,3.3381 4.0193,5.4162 7.3224,4.6594 l 62.8649,-14.401 c 3.3031,-0.7567 5.3553,-4.053 4.6018,-7.3911 l -11.6581,-51.6451 a 217.00923,214.77939 86.162324 0 0 77.1437,-56.7008 l 48.863,31.0943 c 2.8683,1.8254 6.6294,0.9637 8.4323,-1.9318 l 34.3112,-55.10586 c 1.8026,-2.89547 0.9447,-6.69652 -1.9237,-8.52187 l -50.0802,-31.86877 a 217.00923,214.77939 86.162324 0 0 13.108,-85.52039 l 53.536,-12.26405 c 3.3032,-0.75668 5.3555,-4.05298 4.602,-7.3911 l -14.3411,-63.53172 c -0.7535,-3.33811 -4.0191,-5.41619 -7.3223,-4.6595 l -53.1774,12.18184 a 217.00923,214.77939 86.162324 0 0 -51.7937,-74.22963 l 33.1249,-53.20107 c 1.8027,-2.89541 0.9447,-6.6965 -1.9236,-8.52196 l -54.5924,-34.73994 c -2.8685,-1.82544 -6.6297,-0.96383 -8.4324,1.93169 l -32.939,52.90256 a 217.00923,214.77939 86.162324 0 0 -90.495,-15.89981 l -12.5541,-55.61435 c -0.7535,-3.33813 -4.0189,-5.41624 -7.3219,-4.65958 z m 59.9208,119.00301 A 147.25627,145.74316 86.162258 0 1 1907.6889,847.9625 147.25627,145.74316 86.162258 0 1 1798.0064,1024.121 147.25627,145.74316 86.162258 0 1 1623.4905,913.06667 147.25627,145.74316 86.162258 0 1 1733.1732,736.90829 Z" />
  </g>
</svg>
